name analog
datacolumns 19
datarows 23
range 0.0 0.011
endheader
time	ground_force_vx	ground_force_vy	ground_force_vz	ground_force_px	ground_force_py	ground_force_pz	l_ground_force_vx	l_ground_force_vy	l_ground_force_vz	l_ground_force_px	l_ground_force_py	l_ground_force_pz	ground_torque_x	ground_torque_y	ground_torque_z	l_ground_torque_x	l_ground_torque_y	l_ground_torque_z
0.0	-0.0	-0.0	-0.0	-12.419700622558594	39.21090316772461	-441.5775146484375	5.427213191986084	-39.20956802368164	-547.8604736328125	-0.0	-0.0	-0.0	-0.0	-0.0	-0.0	150358.390625	-17703.544921875	1035.6766357421875
0.0005	-0.0	-0.0	-0.0	-12.387155532836914	39.293418884277344	-442.8616943359375	6.000187873840332	-39.36480331420898	-547.4275512695312	-0.0	-0.0	-0.0	-0.0	-0.0	-0.0	150114.375	-17696.46875	1006.4290771484376
0.001	-0.0	-0.0	-0.0	-12.38704776763916	39.03251647949219	-440.8993225097656	5.844089031219482	-39.27082824707031	-546.8992919921875	-0.0	-0.0	-0.0	-0.0	-0.0	-0.0	150034.75	-17920.359375	1204.978759765625
0.0015	-0.0	-0.0	-0.0	-12.139301300048828	38.71592712402344	-441.1745910644531	5.782629489898682	-38.84518432617188	-547.1421508789062	-0.0	-0.0	-0.0	-0.0	-0.0	-0.0	150188.9375	-17920.103515625	976.8216552734376
0.002	-0.0	-0.0	-0.0	-12.730125427246094	39.12151336669922	-441.7213134765625	6.193110466003418	-39.14860534667969	-547.1642456054688	-0.0	-0.0	-0.0	-0.0	-0.0	-0.0	149974.3125	-17900.9921875	1006.7486572265624
0.0025	-0.0	-0.0	-0.0	-12.57868194580078	39.05949401855469	-440.74163818359375	5.960427761077881	-39.06049346923828	-548.1239624023438	-0.0	-0.0	-0.0	-0.0	-0.0	-0.0	150015.359375	-18149.9765625	1267.9981689453125
0.003	-0.0	-0.0	-0.0	-12.908040046691896	38.92939376831055	-441.828125	5.915251731872559	-38.932918548583984	-547.38037109375	-0.0	-0.0	-0.0	-0.0	-0.0	-0.0	149913.515625	-18192.279296875	1032.5594482421875
0.0035	-0.0	-0.0	-0.0	-12.60642433166504	39.03911590576172	-441.4200134277344	6.138258934020996	-39.12079620361328	-548.6630859375	-0.0	-0.0	-0.0	-0.0	-0.0	-0.0	150048.546875	-18008.69921875	1153.2452392578125
0.004	-0.0	-0.0	-0.0	-12.221839904785156	38.66862869262695	-440.7408752441406	6.097877025604248	-39.1438102722168	-546.0731201171875	-0.0	-0.0	-0.0	-0.0	-0.0	-0.0	149779.734375	-18100.04296875	1230.6002197265625
0.0045000000000000005	-0.0	-0.0	-0.0	-12.604331970214844	38.84674453735352	-439.3837890625	6.215619087219238	-39.46812057495117	-546.725341796875	-0.0	-0.0	-0.0	-0.0	-0.0	-0.0	150163.78125	-18434.9453125	1262.10546875
0.005	-0.0	-0.0	-0.0	-12.153979301452637	38.94287872314453	-439.3276672363281	6.375339984893799	-39.18536758422852	-545.398193359375	-0.0	-0.0	-0.0	-0.0	-0.0	-0.0	149909.359375	-18511.853515625	1179.16357421875
0.0055	-0.0	-0.0	-0.0	-12.64634609222412	38.46543502807617	-439.4126892089844	6.64732551574707	-39.132469177246094	-546.3516235351562	-0.0	-0.0	-0.0	-0.0	-0.0	-0.0	149801.859375	-18329.689453125	1262.3387451171875
0.006	-0.0	-0.0	-0.0	-12.61711311340332	38.62245941162109	-441.6845397949219	6.635143756866455	-39.2027702331543	-548.0966186523438	-0.0	-0.0	-0.0	-0.0	-0.0	-0.0	150531.96875	-18283.517578125	1161.78271484375
0.006500000000000001	-0.0	-0.0	-0.0	-12.564064979553224	38.79363250732422	-442.0655517578125	6.748128414154053	-39.29707336425781	-547.770751953125	-0.0	-0.0	-0.0	-0.0	-0.0	-0.0	150281.65625	-18518.0546875	1244.7930908203125
0.007	-0.0	-0.0	-0.0	-12.214458465576172	39.21000289916992	-440.3277282714844	6.653308868408203	-39.45518112182617	-547.81884765625	-0.0	-0.0	-0.0	-0.0	-0.0	-0.0	150449.734375	-18523.380859375	1270.263916015625
0.0075	-0.0	-0.0	-0.0	-12.266512870788574	38.80892181396485	-440.7685546875	6.589579582214356	-39.31558990478516	-547.8680419921875	-0.0	-0.0	-0.0	-0.0	-0.0	-0.0	150560.171875	-18701.490234375	1329.5821533203125
0.008	-0.0	-0.0	-0.0	-11.820783615112305	38.94249725341797	-439.6793518066406	6.906843185424805	-39.61881256103516	-548.6163940429688	-0.0	-0.0	-0.0	-0.0	-0.0	-0.0	150671.484375	-18962.296875	1355.18212890625
0.0085	-0.0	-0.0	-0.0	-12.088852882385254	38.87598419189453	-440.4154052734375	7.084120273590088	-39.32852935791016	-548.5172119140625	-0.0	-0.0	-0.0	-0.0	-0.0	-0.0	150844.078125	-19010.64453125	1365.986083984375
0.009000000000000001	-0.0	-0.0	-0.0	-11.954208374023438	38.90657424926758	-441.3541564941406	7.406729221343994	-39.66283798217773	-550.5614624023438	-0.0	-0.0	-0.0	-0.0	-0.0	-0.0	150906.15625	-19291.54296875	1563.09033203125
0.0095	-0.0	-0.0	-0.0	-11.92652988433838	39.217376708984375	-441.1217651367188	7.388954162597656	-39.23421096801758	-549.2665405273438	-0.0	-0.0	-0.0	-0.0	-0.0	-0.0	151037.515625	-19305.66015625	1416.9932861328125
0.01	-0.0	-0.0	-0.0	-11.911580085754396	39.15927505493164	-441.3827209472656	7.560101509094238	-39.9770622253418	-550.1854858398438	-0.0	-0.0	-0.0	-0.0	-0.0	-0.0	151267.59375	-19466.36328125	1474.0362548828125
0.0105	-0.0	-0.0	-0.0	-12.182745933532717	39.492584228515625	-440.9979553222656	7.547033309936523	-39.139686584472656	-550.5859985351562	-0.0	-0.0	-0.0	-0.0	-0.0	-0.0	151226.46875	-19744.94140625	1531.318603515625
0.011	-0.0	-0.0	-0.0	-11.726035118103027	39.19372177124024	-441.828125	8.06599235534668	-39.21482849121094	-549.0769653320312	-0.0	-0.0	-0.0	-0.0	-0.0	-0.0	151341.671875	-19899.9140625	1579.7401123046875
